<svg width="20" height="21" viewBox="0 0 20 21" fill="none" xmlns="http://www.w3.org/2000/svg">
<mask id="mask0_367_556" style="mask-type:alpha" maskUnits="userSpaceOnUse" x="0" y="0" width="20" height="21">
<rect y="0.5" width="20" height="20" fill="#1B1B1B"/>
</mask>
<g mask="url(#mask0_367_556)">
<path d="M7.39687 15.2937C5.32954 15.2937 3.5799 14.5778 2.14794 13.1458C0.715979 11.7138 0 9.9642 0 7.89687C0 5.82954 0.715979 4.0799 2.14794 2.64794C3.5799 1.21598 5.32954 0.5 7.39687 0.5C9.4642 0.5 11.2138 1.21598 12.6458 2.64794C14.0778 4.0799 14.7937 5.82954 14.7937 7.89687C14.7937 8.73139 14.661 9.51849 14.3954 10.2582C14.1299 10.9979 13.7696 11.6522 13.3144 12.2212L19.6871 18.5939C19.8957 18.8025 20 19.068 20 19.3905C20 19.7129 19.8957 19.9784 19.6871 20.1871C19.4784 20.3957 19.2129 20.5 18.8905 20.5C18.568 20.5 18.3025 20.3957 18.0939 20.1871L11.7212 13.8144C11.1522 14.2696 10.4979 14.6299 9.75818 14.8954C9.01849 15.161 8.23139 15.2937 7.39687 15.2937ZM7.39687 13.0178C8.81934 13.0178 10.0284 12.5199 11.0242 11.5242C12.0199 10.5284 12.5178 9.31934 12.5178 7.89687C12.5178 6.47439 12.0199 5.26529 11.0242 4.26956C10.0284 3.27383 8.81934 2.77596 7.39687 2.77596C5.97439 2.77596 4.76529 3.27383 3.76956 4.26956C2.77383 5.26529 2.27596 6.47439 2.27596 7.89687C2.27596 9.31934 2.77383 10.5284 3.76956 11.5242C4.76529 12.5199 5.97439 13.0178 7.39687 13.0178Z" fill="#8D8D8D"/>
</g>
</svg>
